# Blender v2.79 (sub 0) OBJ File: 'asteroid.blend'
# www.blender.org
mtllib asteroid.mtl
o asteroid
v 0.000000 -3.005738 -0.000000
v 2.104016 -2.104016 -1.653155
v 2.254303 -2.254303 0.751434
v -0.000000 3.005738 0.000002
v 1.190272 1.514892 -1.514890
v -0.751434 2.254304 -2.254302
v 3.005736 -0.000000 0.000002
v 2.254303 0.000000 -2.254302
v -0.000000 -0.000000 3.005738
v 1.502869 -1.502869 1.953730
v 2.254302 -0.000000 2.254304
v -2.254303 2.254303 0.000001
v -1.465297 1.127152 -1.127151
v -3.005738 0.000000 0.000000
v 0.000000 -2.254303 -2.254303
v 2.254302 2.254303 0.000003
v 0.000000 -2.254304 2.254303
v -2.254303 -2.254303 -0.751435
v -2.104016 -2.104017 1.653155
v 0.000000 0.000000 -3.005736
v -1.388651 1.767373 1.767374
v 2.442160 1.878586 1.878588
v 0.751433 2.254303 2.254305
v -2.254303 -0.000000 2.254303
v -1.878586 -1.878586 -2.442162
v -2.254303 0.000000 -2.254303
vt 0.163058 0.148751
vt 0.352233 0.068119
vt 0.335659 0.230580
vt 0.819965 0.000000
vt 0.904370 0.156267
vt 0.734390 0.156267
vt 0.154614 0.625876
vt 0.140106 0.431872
vt 0.285049 0.509411
vt 0.174443 0.431872
vt 0.277099 0.328715
vt 0.352233 0.391191
vt 0.693696 0.548016
vt 0.592592 0.629921
vt 0.536887 0.540130
vt 0.701526 0.460284
vt 0.846392 0.376584
vt 0.942355 0.505391
vt 0.198048 0.012614
vt 0.996775 0.039067
vt 0.000000 0.549202
vt 0.149832 0.322991
vt 0.352233 0.591398
vt 0.365878 0.415618
vt 0.819965 0.312535
vt 0.000000 0.275106
vt 0.662762 0.717525
vt 0.587446 0.069417
vt 0.734390 0.000000
vt 0.734390 0.174546
vt 0.603940 0.257446
vt 0.996775 0.273468
vt 0.285049 0.743770
vt 0.160817 0.821947
vt 0.352672 0.219549
vt 0.352233 0.126109
vt 0.444078 0.192058
vt 0.465571 0.338800
vt 0.528372 0.376584
vt 0.642984 0.376584
vt 1.000000 0.635858
vt 0.793089 0.606257
vt 0.012222 0.105025
vt 0.064036 0.000000
vt 0.444078 0.017512
vt 0.040721 0.744397
vt 0.012725 0.369095
vt 0.446951 0.717525
vt 0.446951 0.880323
vt 0.352233 0.844157
vt 0.519102 0.707652
vt 0.370509 0.717525
vt 0.901239 0.730928
vt 0.693696 0.730928
vt 0.405843 1.000000
vn 0.3391 -0.9374 -0.0798
vn 0.4575 0.7866 -0.4147
vn 0.9370 -0.1562 -0.3123
vn 0.2987 -0.3285 0.8960
vn -0.6775 0.2258 -0.7000
vn 0.2821 -0.2821 -0.9169
vn 0.1562 -0.9370 -0.3123
vn 0.2609 0.7826 -0.5652
vn 0.9374 -0.3391 -0.0798
vn 0.3285 -0.2987 0.8960
vn -0.9374 -0.3391 0.0798
vn 0.4575 0.4147 -0.7866
vn 0.4381 -0.6134 0.6572
vn 0.2063 -0.9283 0.3094
vn -0.1562 -0.9370 0.3123
vn -0.8317 -0.0277 -0.5545
vn -0.3094 0.9283 -0.2063
vn -0.2919 0.8758 0.3843
vn 0.4581 0.6285 -0.6285
vn 0.9045 0.3015 -0.3015
vn 0.9482 0.3161 -0.0316
vn 0.2489 0.1659 0.9542
vn 0.3094 0.2063 0.9283
vn -0.2875 0.3878 0.8758
vn -0.9370 -0.1562 0.3123
vn -0.9045 0.3015 0.3015
vn -0.7228 0.4887 0.4887
vn 0.0316 -0.3161 -0.9482
vn 0.3015 -0.3015 -0.9045
vn 0.2609 0.5652 -0.7826
vn -0.3391 -0.9374 0.0798
vn -0.2063 -0.9283 -0.3094
vn -0.1659 -0.9542 -0.2489
vn -0.2875 0.8758 0.3878
vn 0.3094 0.9283 0.2063
vn 0.2489 0.9542 0.1659
vn 0.9482 -0.0316 0.3161
vn 0.9283 -0.2063 0.3094
vn 0.6134 -0.4381 0.6572
vn -0.2919 0.3843 0.8758
vn -0.3015 -0.3015 0.9045
vn -0.2821 -0.2821 0.9169
vn -0.6775 0.7000 -0.2258
vn -0.9283 -0.2063 -0.3094
vn -0.9542 -0.1659 -0.2489
vn -0.3161 0.0316 -0.9482
vn -0.3094 0.2063 -0.9283
vn -0.8317 0.5545 0.0277
usemtl None
s off
f 1/1/1 2/2/1 3/3/1
f 4/4/2 5/5/2 6/6/2
f 7/7/3 2/8/3 8/9/3
f 9/10/4 10/11/4 11/12/4
f 12/13/5 13/14/5 14/15/5
f 8/16/6 2/17/6 15/18/6
f 15/19/7 2/2/7 1/1/7
f 16/20/8 5/5/8 4/4/8
f 3/21/9 2/8/9 7/7/9
f 17/22/10 10/11/10 9/10/10
f 18/23/11 19/24/11 14/15/11
f 6/6/12 5/5/12 20/25/12
f 3/3/13 10/11/13 17/22/13
f 1/1/14 3/3/14 17/22/14
f 17/22/15 19/26/15 1/1/15
f 6/27/16 13/14/16 12/13/16
f 4/28/17 6/29/17 12/30/17
f 12/30/18 21/31/18 4/28/18
f 8/32/19 5/5/19 16/20/19
f 7/7/20 8/9/20 16/33/20
f 16/33/21 22/34/21 7/7/21
f 11/35/22 22/36/22 23/37/22
f 9/38/23 11/35/23 23/37/23
f 23/37/24 21/31/24 9/38/24
f 14/15/25 19/24/25 24/39/25
f 12/13/26 14/15/26 24/39/26
f 24/40/27 21/31/27 12/30/27
f 15/18/28 25/41/28 20/42/28
f 8/16/29 15/18/29 20/42/29
f 20/25/30 5/5/30 8/32/30
f 1/1/31 19/26/31 18/43/31
f 15/19/32 1/1/32 18/43/32
f 18/43/33 25/44/33 15/19/33
f 4/28/34 21/31/34 23/37/34
f 16/45/35 4/28/35 23/37/35
f 23/37/36 22/36/36 16/45/36
f 7/7/37 22/34/37 11/46/37
f 3/21/38 7/7/38 11/46/38
f 11/12/39 10/11/39 3/3/39
f 9/38/40 21/31/40 24/40/40
f 17/22/41 9/10/41 24/47/41
f 24/47/42 19/26/42 17/22/42
f 14/48/43 13/49/43 26/50/43
f 18/23/44 14/15/44 26/51/44
f 26/51/45 25/52/45 18/23/45
f 20/42/46 25/41/46 26/53/46
f 6/54/47 20/42/47 26/53/47
f 26/50/48 13/49/48 6/55/48
